<mxfile host="65bd71144e" modified="2020-12-08T21:07:20.533Z" agent="5.0 (Windows NT 10.0; Win64; x64) AppleWebKit/537.36 (KHTML, like Gecko) Code/1.51.1 Chrome/83.0.4103.122 Electron/9.3.3 Safari/537.36" version="13.10.0" etag="6ay5c0aHk5kcOZ1zuzMj" type="embed">
    <diagram id="ejO4Rxym8WgI8hj8pYSN" name="Page-1">
        <mxGraphModel dx="1635" dy="1588" grid="1" gridSize="10" guides="1" tooltips="1" connect="1" arrows="1" fold="1" page="1" pageScale="1" pageWidth="850" pageHeight="1100" math="0" shadow="0">
            <root>
                <mxCell id="0"/>
                <mxCell id="1" parent="0"/>
                <mxCell id="68" value="" style="rounded=0;whiteSpace=wrap;html=1;fontColor=#030303;" vertex="1" parent="1">
                    <mxGeometry x="-10" y="-20" width="850" height="450" as="geometry"/>
                </mxCell>
                <mxCell id="23" value="Appointment" style="shape=table;startSize=30;container=1;collapsible=1;childLayout=tableLayout;fixedRows=1;rowLines=0;fontStyle=1;align=center;resizeLast=1;fillColor=#b1ddf0;strokeColor=#10739e;fontColor=#030303;" vertex="1" parent="1">
                    <mxGeometry x="320" y="120" width="180" height="190" as="geometry"/>
                </mxCell>
                <mxCell id="24" value="" style="shape=partialRectangle;collapsible=0;dropTarget=0;pointerEvents=0;fillColor=none;top=0;left=0;bottom=0;right=0;points=[[0,0.5],[1,0.5]];portConstraint=eastwest;" vertex="1" parent="23">
                    <mxGeometry y="30" width="180" height="30" as="geometry"/>
                </mxCell>
                <mxCell id="25" value="PK" style="shape=partialRectangle;connectable=0;fillColor=none;top=0;left=0;bottom=0;right=0;fontStyle=1;overflow=hidden;" vertex="1" parent="24">
                    <mxGeometry width="60" height="30" as="geometry"/>
                </mxCell>
                <mxCell id="26" value="AptId" style="shape=partialRectangle;connectable=0;fillColor=none;top=0;left=0;bottom=0;right=0;align=left;spacingLeft=6;fontStyle=5;overflow=hidden;" vertex="1" parent="24">
                    <mxGeometry x="60" width="120" height="30" as="geometry"/>
                </mxCell>
                <mxCell id="27" value="" style="shape=partialRectangle;collapsible=0;dropTarget=0;pointerEvents=0;fillColor=none;top=0;left=0;bottom=1;right=0;points=[[0,0.5],[1,0.5]];portConstraint=eastwest;" vertex="1" parent="23">
                    <mxGeometry y="60" width="180" height="30" as="geometry"/>
                </mxCell>
                <mxCell id="28" value="FK" style="shape=partialRectangle;connectable=0;fillColor=none;top=0;left=0;bottom=0;right=0;fontStyle=1;overflow=hidden;" vertex="1" parent="27">
                    <mxGeometry width="60" height="30" as="geometry"/>
                </mxCell>
                <mxCell id="29" value="docId" style="shape=partialRectangle;connectable=0;fillColor=none;top=0;left=0;bottom=0;right=0;align=left;spacingLeft=6;fontStyle=5;overflow=hidden;" vertex="1" parent="27">
                    <mxGeometry x="60" width="120" height="30" as="geometry"/>
                </mxCell>
                <mxCell id="30" value="" style="shape=partialRectangle;collapsible=0;dropTarget=0;pointerEvents=0;fillColor=none;top=0;left=0;bottom=0;right=0;points=[[0,0.5],[1,0.5]];portConstraint=eastwest;" vertex="1" parent="23">
                    <mxGeometry y="90" width="180" height="30" as="geometry"/>
                </mxCell>
                <mxCell id="31" value="" style="shape=partialRectangle;connectable=0;fillColor=none;top=0;left=0;bottom=0;right=0;editable=1;overflow=hidden;" vertex="1" parent="30">
                    <mxGeometry width="60" height="30" as="geometry"/>
                </mxCell>
                <mxCell id="32" value="datetime" style="shape=partialRectangle;connectable=0;fillColor=none;top=0;left=0;bottom=0;right=0;align=left;spacingLeft=6;overflow=hidden;" vertex="1" parent="30">
                    <mxGeometry x="60" width="120" height="30" as="geometry"/>
                </mxCell>
                <mxCell id="33" value="" style="shape=partialRectangle;collapsible=0;dropTarget=0;pointerEvents=0;fillColor=none;top=0;left=0;bottom=0;right=0;points=[[0,0.5],[1,0.5]];portConstraint=eastwest;" vertex="1" parent="23">
                    <mxGeometry y="120" width="180" height="30" as="geometry"/>
                </mxCell>
                <mxCell id="34" value="" style="shape=partialRectangle;connectable=0;fillColor=none;top=0;left=0;bottom=0;right=0;editable=1;overflow=hidden;" vertex="1" parent="33">
                    <mxGeometry width="60" height="30" as="geometry"/>
                </mxCell>
                <mxCell id="35" value="patient_name" style="shape=partialRectangle;connectable=0;fillColor=none;top=0;left=0;bottom=0;right=0;align=left;spacingLeft=6;overflow=hidden;" vertex="1" parent="33">
                    <mxGeometry x="60" width="120" height="30" as="geometry"/>
                </mxCell>
                <mxCell id="36" value="" style="shape=partialRectangle;collapsible=0;dropTarget=0;pointerEvents=0;fillColor=none;top=0;left=0;bottom=0;right=0;points=[[0,0.5],[1,0.5]];portConstraint=eastwest;" vertex="1" parent="23">
                    <mxGeometry y="150" width="180" height="30" as="geometry"/>
                </mxCell>
                <mxCell id="37" value="" style="shape=partialRectangle;connectable=0;fillColor=none;top=0;left=0;bottom=0;right=0;editable=1;overflow=hidden;" vertex="1" parent="36">
                    <mxGeometry width="60" height="30" as="geometry"/>
                </mxCell>
                <mxCell id="38" value="docDept" style="shape=partialRectangle;connectable=0;fillColor=none;top=0;left=0;bottom=0;right=0;align=left;spacingLeft=6;overflow=hidden;" vertex="1" parent="36">
                    <mxGeometry x="60" width="120" height="30" as="geometry"/>
                </mxCell>
                <mxCell id="42" value="Doctor" style="shape=table;startSize=30;container=1;collapsible=1;childLayout=tableLayout;fixedRows=1;rowLines=0;fontStyle=1;align=center;resizeLast=1;fillColor=#b1ddf0;strokeColor=#10739e;fontColor=#030303;" vertex="1" parent="1">
                    <mxGeometry x="580" y="120" width="180" height="140" as="geometry"/>
                </mxCell>
                <mxCell id="43" value="" style="shape=partialRectangle;collapsible=0;dropTarget=0;pointerEvents=0;fillColor=none;top=0;left=0;bottom=1;right=0;points=[[0,0.5],[1,0.5]];portConstraint=eastwest;" vertex="1" parent="42">
                    <mxGeometry y="30" width="180" height="30" as="geometry"/>
                </mxCell>
                <mxCell id="44" value="PK" style="shape=partialRectangle;connectable=0;fillColor=none;top=0;left=0;bottom=0;right=0;fontStyle=1;overflow=hidden;" vertex="1" parent="43">
                    <mxGeometry width="30" height="30" as="geometry"/>
                </mxCell>
                <mxCell id="45" value="docId" style="shape=partialRectangle;connectable=0;fillColor=none;top=0;left=0;bottom=0;right=0;align=left;spacingLeft=6;fontStyle=5;overflow=hidden;" vertex="1" parent="43">
                    <mxGeometry x="30" width="150" height="30" as="geometry"/>
                </mxCell>
                <mxCell id="46" value="" style="shape=partialRectangle;collapsible=0;dropTarget=0;pointerEvents=0;fillColor=none;top=0;left=0;bottom=0;right=0;points=[[0,0.5],[1,0.5]];portConstraint=eastwest;" vertex="1" parent="42">
                    <mxGeometry y="60" width="180" height="30" as="geometry"/>
                </mxCell>
                <mxCell id="47" value="" style="shape=partialRectangle;connectable=0;fillColor=none;top=0;left=0;bottom=0;right=0;editable=1;overflow=hidden;" vertex="1" parent="46">
                    <mxGeometry width="30" height="30" as="geometry"/>
                </mxCell>
                <mxCell id="48" value="full_name" style="shape=partialRectangle;connectable=0;fillColor=none;top=0;left=0;bottom=0;right=0;align=left;spacingLeft=6;overflow=hidden;" vertex="1" parent="46">
                    <mxGeometry x="30" width="150" height="30" as="geometry"/>
                </mxCell>
                <mxCell id="49" value="" style="shape=partialRectangle;collapsible=0;dropTarget=0;pointerEvents=0;fillColor=none;top=0;left=0;bottom=0;right=0;points=[[0,0.5],[1,0.5]];portConstraint=eastwest;" vertex="1" parent="42">
                    <mxGeometry y="90" width="180" height="30" as="geometry"/>
                </mxCell>
                <mxCell id="50" value="" style="shape=partialRectangle;connectable=0;fillColor=none;top=0;left=0;bottom=0;right=0;editable=1;overflow=hidden;" vertex="1" parent="49">
                    <mxGeometry width="30" height="30" as="geometry"/>
                </mxCell>
                <mxCell id="51" value="docDept" style="shape=partialRectangle;connectable=0;fillColor=none;top=0;left=0;bottom=0;right=0;align=left;spacingLeft=6;overflow=hidden;" vertex="1" parent="49">
                    <mxGeometry x="30" width="150" height="30" as="geometry"/>
                </mxCell>
                <mxCell id="52" value="" style="shape=partialRectangle;collapsible=0;dropTarget=0;pointerEvents=0;fillColor=none;top=0;left=0;bottom=0;right=0;points=[[0,0.5],[1,0.5]];portConstraint=eastwest;" vertex="1" parent="42">
                    <mxGeometry y="120" width="180" height="20" as="geometry"/>
                </mxCell>
                <mxCell id="53" value="" style="shape=partialRectangle;connectable=0;fillColor=none;top=0;left=0;bottom=0;right=0;editable=1;overflow=hidden;" vertex="1" parent="52">
                    <mxGeometry width="30" height="20" as="geometry"/>
                </mxCell>
                <mxCell id="54" value="" style="shape=partialRectangle;connectable=0;fillColor=none;top=0;left=0;bottom=0;right=0;align=left;spacingLeft=6;overflow=hidden;" vertex="1" parent="52">
                    <mxGeometry x="30" width="150" height="20" as="geometry"/>
                </mxCell>
                <mxCell id="60" value="" style="group" vertex="1" connectable="0" parent="1">
                    <mxGeometry x="60" y="120" width="180" height="260" as="geometry"/>
                </mxCell>
                <object label="Patient" age="" id="6">
                    <mxCell style="shape=table;startSize=30;container=1;collapsible=1;childLayout=tableLayout;fixedRows=1;rowLines=0;fontStyle=1;align=center;resizeLast=1;fillColor=#b0e3e6;strokeColor=#0e8088;fontColor=#030303;" vertex="1" parent="60">
                        <mxGeometry width="180" height="260" as="geometry"/>
                    </mxCell>
                </object>
                <mxCell id="7" value="" style="shape=partialRectangle;collapsible=0;dropTarget=0;pointerEvents=0;fillColor=none;top=0;left=0;bottom=1;right=0;points=[[0,0.5],[1,0.5]];portConstraint=eastwest;" vertex="1" parent="6">
                    <mxGeometry y="30" width="180" height="30" as="geometry"/>
                </mxCell>
                <mxCell id="8" value="PK" style="shape=partialRectangle;connectable=0;fillColor=none;top=0;left=0;bottom=0;right=0;fontStyle=1;overflow=hidden;" vertex="1" parent="7">
                    <mxGeometry width="30" height="30" as="geometry"/>
                </mxCell>
                <mxCell id="9" value="PatientId" style="shape=partialRectangle;connectable=0;fillColor=none;top=0;left=0;bottom=0;right=0;align=left;spacingLeft=6;fontStyle=5;overflow=hidden;" vertex="1" parent="7">
                    <mxGeometry x="30" width="150" height="30" as="geometry"/>
                </mxCell>
                <mxCell id="10" value="" style="shape=partialRectangle;collapsible=0;dropTarget=0;pointerEvents=0;fillColor=none;top=0;left=0;bottom=0;right=0;points=[[0,0.5],[1,0.5]];portConstraint=eastwest;" vertex="1" parent="6">
                    <mxGeometry y="60" width="180" height="30" as="geometry"/>
                </mxCell>
                <mxCell id="11" value="" style="shape=partialRectangle;connectable=0;fillColor=none;top=0;left=0;bottom=0;right=0;editable=1;overflow=hidden;" vertex="1" parent="10">
                    <mxGeometry width="30" height="30" as="geometry"/>
                </mxCell>
                <mxCell id="12" value="full_name" style="shape=partialRectangle;connectable=0;fillColor=none;top=0;left=0;bottom=0;right=0;align=left;spacingLeft=6;overflow=hidden;" vertex="1" parent="10">
                    <mxGeometry x="30" width="150" height="30" as="geometry"/>
                </mxCell>
                <mxCell id="13" value="" style="shape=partialRectangle;collapsible=0;dropTarget=0;pointerEvents=0;fillColor=none;top=0;left=0;bottom=0;right=0;points=[[0,0.5],[1,0.5]];portConstraint=eastwest;" vertex="1" parent="6">
                    <mxGeometry y="90" width="180" height="30" as="geometry"/>
                </mxCell>
                <mxCell id="14" value="" style="shape=partialRectangle;connectable=0;fillColor=none;top=0;left=0;bottom=0;right=0;editable=1;overflow=hidden;" vertex="1" parent="13">
                    <mxGeometry width="30" height="30" as="geometry"/>
                </mxCell>
                <mxCell id="15" value="created_at" style="shape=partialRectangle;connectable=0;fillColor=none;top=0;left=0;bottom=0;right=0;align=left;spacingLeft=6;overflow=hidden;" vertex="1" parent="13">
                    <mxGeometry x="30" width="150" height="30" as="geometry"/>
                </mxCell>
                <mxCell id="16" value="" style="shape=partialRectangle;collapsible=0;dropTarget=0;pointerEvents=0;fillColor=none;top=0;left=0;bottom=0;right=0;points=[[0,0.5],[1,0.5]];portConstraint=eastwest;" vertex="1" parent="6">
                    <mxGeometry y="120" width="180" height="30" as="geometry"/>
                </mxCell>
                <mxCell id="17" value="" style="shape=partialRectangle;connectable=0;fillColor=none;top=0;left=0;bottom=0;right=0;editable=1;overflow=hidden;" vertex="1" parent="16">
                    <mxGeometry width="30" height="30" as="geometry"/>
                </mxCell>
                <mxCell id="18" value="address" style="shape=partialRectangle;connectable=0;fillColor=none;top=0;left=0;bottom=0;right=0;align=left;spacingLeft=6;overflow=hidden;" vertex="1" parent="16">
                    <mxGeometry x="30" width="150" height="30" as="geometry"/>
                </mxCell>
                <mxCell id="19" value="age" style="shape=partialRectangle;connectable=0;fillColor=none;top=0;left=0;bottom=0;right=0;align=left;spacingLeft=6;overflow=hidden;" vertex="1" parent="60">
                    <mxGeometry x="30" y="154" width="150" height="30" as="geometry"/>
                </mxCell>
                <mxCell id="20" value="bloodGroup" style="shape=partialRectangle;connectable=0;fillColor=none;top=0;left=0;bottom=0;right=0;align=left;spacingLeft=6;overflow=hidden;" vertex="1" parent="60">
                    <mxGeometry x="30" y="187" width="150" height="30" as="geometry"/>
                </mxCell>
                <mxCell id="21" value="gender" style="shape=partialRectangle;connectable=0;fillColor=none;top=0;left=0;bottom=0;right=0;align=left;spacingLeft=6;overflow=hidden;" vertex="1" parent="60">
                    <mxGeometry x="30" y="220" width="150" height="30" as="geometry"/>
                </mxCell>
                <mxCell id="61" value="&lt;font style=&quot;font-size: 24px&quot; color=&quot;#0a0847&quot;&gt;Database Diagram&lt;/font&gt;" style="rounded=0;whiteSpace=wrap;html=1;" vertex="1" parent="1">
                    <mxGeometry x="250" y="10" width="320" height="60" as="geometry"/>
                </mxCell>
                <mxCell id="62" value="&lt;font color=&quot;#0a0847&quot;&gt;Appointment System&lt;/font&gt;" style="rounded=1;whiteSpace=wrap;html=1;fontColor=#030303;" vertex="1" parent="1">
                    <mxGeometry x="10" y="20" width="170" height="40" as="geometry"/>
                </mxCell>
                <mxCell id="63" value="&lt;font color=&quot;#0a0847&quot;&gt;Lok Bahadur Gubhaju 929992&lt;/font&gt;" style="rounded=1;whiteSpace=wrap;html=1;" vertex="1" parent="1">
                    <mxGeometry x="640" y="20" width="170" height="40" as="geometry"/>
                </mxCell>
                <mxCell id="64" value="" style="edgeStyle=entityRelationEdgeStyle;fontSize=12;html=1;endArrow=ERzeroToMany;startArrow=ERmandOne;entryX=1;entryY=0.5;entryDx=0;entryDy=0;exitX=0;exitY=0.5;exitDx=0;exitDy=0;" edge="1" parent="1" source="43" target="27">
                    <mxGeometry width="100" height="100" relative="1" as="geometry">
                        <mxPoint x="500" y="400" as="sourcePoint"/>
                        <mxPoint x="600" y="300" as="targetPoint"/>
                    </mxGeometry>
                </mxCell>
                <mxCell id="66" value="" style="edgeStyle=entityRelationEdgeStyle;fontSize=12;html=1;endArrow=ERzeroToMany;startArrow=ERzeroToOne;exitX=1;exitY=0.5;exitDx=0;exitDy=0;entryX=0;entryY=0.5;entryDx=0;entryDy=0;" edge="1" parent="1" source="16" target="27">
                    <mxGeometry width="100" height="100" relative="1" as="geometry">
                        <mxPoint x="330" y="400" as="sourcePoint"/>
                        <mxPoint x="430" y="300" as="targetPoint"/>
                    </mxGeometry>
                </mxCell>
            </root>
        </mxGraphModel>
    </diagram>
</mxfile>